# xmcd CD database file
#
# Track frame offsets:
#	150
#	13132
#	27677
#	38082
#	50032
#	63915
#	77613
#	91362
#	102617
#	114946
#	127350
#	137998
#	165895
#	181465
#	192094
#	204138
#
# Disc length: 2858 seconds
#
# Revision: 3
# Processed by: cddbd v1.5.1PL0 Copyright (c) Steve Scherf et al.
# Submitted via: CDex 1.51
#
DISCID=dd0b2810
DTITLE=麗莎 - 名曲金典 3
DYEAR=1980
DGENRE=New Age
TTITLE0=恭喜發財
TTITLE1=賀年
TTITLE2=秋風吹謝了春紅
TTITLE3=錯愛負心人
TTITLE4=心聲淚影
TTITLE5=夜夜寄相思
TTITLE6=歌頌新春
TTITLE7=新春願望
TTITLE8=彩雲追月
TTITLE9=平湖秋月
TTITLE10=勁草繑花
TTITLE11=王昭君
TTITLE12=分飛燕
TTITLE13=哥仔靚
TTITLE14=情迷意亂
TTITLE15=高歌太平年
EXTD=YEAR: 1980
EXTT0=
EXTT1=
EXTT2=
EXTT3=
EXTT4=
EXTT5=
EXTT6=
EXTT7=
EXTT8=
EXTT9=
EXTT10=
EXTT11=
EXTT12=
EXTT13=
EXTT14=
EXTT15=
PLAYORDER=
